<?xml version="1.0" ?><!DOCTYPE svg  PUBLIC '-//W3C//DTD SVG 1.1//EN'  'http://www.w3.org/Graphics/SVG/1.1/DTD/svg11.dtd'><!-- Uploaded to: SVG Repo, www.svgrepo.com, Generator: SVG Repo Mixer Tools -->
<svg fill="#000000" width="800px" height="800px" viewBox="0 0 32 32" style="fill-rule:evenodd;clip-rule:evenodd;stroke-linejoin:round;stroke-miterlimit:2;" version="1.1" xml:space="preserve" xmlns="http://www.w3.org/2000/svg" xmlns:serif="http://www.serif.com/" xmlns:xlink="http://www.w3.org/1999/xlink"><path d="M7,6l-2,0c-0.796,0 -1.559,0.316 -2.121,0.879c-0.563,0.562 -0.879,1.325 -0.879,2.121c0,3.463 -0,10.537 0,14c-0,0.796 0.316,1.559 0.879,2.121c0.562,0.563 1.325,0.879 2.121,0.879l22,0c0.796,-0 1.559,-0.316 2.121,-0.879c0.563,-0.562 0.879,-1.325 0.879,-2.121l-0,-14c0,-0.796 -0.316,-1.559 -0.879,-2.121c-0.562,-0.563 -1.325,-0.879 -2.121,-0.879l-18,0l0,-3c0,-0.552 -0.448,-1 -1,-1c-0.552,-0 -1,0.448 -1,1l0,3Zm13,4.002c-3.311,-0 -6,2.688 -6,6c0,3.311 2.689,6 6,6c3.311,-0 6,-2.689 6,-6c-0,-3.312 -2.689,-6 -6,-6Zm-13,11.966l4.019,0c0.552,0 1,-0.448 1,-1c0,-0.552 -0.448,-1 -1,-1l-4.019,0c-0.552,0 -1,0.448 -1,1c0,0.552 0.448,1 1,1Zm0,-4.984l4.019,0c0.552,0 1,-0.448 1,-1c0,-0.552 -0.448,-1 -1,-1l-4.019,0c-0.552,0 -1,0.448 -1,1c0,0.552 0.448,1 1,1Zm-0,-4.984l4.019,-0c0.552,-0 1,-0.448 1,-1c0,-0.552 -0.448,-1 -1,-1l-4.019,-0c-0.552,-0 -1,0.448 -1,1c-0,0.552 0.448,1 1,1Z"/></svg>